<?xml version="1.0" encoding="utf-8"?>
<!-- Generator: Adobe Illustrator 24.1.0, SVG Export Plug-In . SVG Version: 6.00 Build 0)  -->
<svg version="1.1" id="Layer_1" xmlns="http://www.w3.org/2000/svg" xmlns:xlink="http://www.w3.org/1999/xlink" x="0px" y="0px"
	 viewBox="0 0 1080 1080" style="enable-background:new 0 0 1080 1080;" xml:space="preserve">
<g>
	<path d="M902.64,643.94c-19.16,0-31.13-1.69-35.91-5.07c-4.79-3.38-7.18-12.38-7.18-27.04V414.95c0-32.66-2.53-56.32-7.6-70.98
		c-14.09-45.06-49.01-67.6-104.78-67.6c-26.48,0-47.46,4.22-62.95,12.67c-15.5,8.45-31.41,24.23-47.74,47.32V202.02
		c0-6.76,0-19.14,0-37.18c0-18.59,0-33.51,0-44.78v-16.9c0-31.54-2.24-47.32-6.73-47.32c-3.37,0-8.69,1.14-15.97,3.38
		c-38.12,11.83-78.75,19.16-121.93,21.97c-19.07,1.14-28.58,3.38-28.58,6.76s8.16,5.07,24.5,5.07c21.4,0,33.38,4.65,35.91,13.94
		c2.53,9.3,3.8,44.36,3.8,105.2v294.35v15.75c0,37.32-0.11,64.44-0.32,81.41l0,0v50.29l6.02,0.16l111.79-308.82
		c0.96-3.18,2.05-5.83,3.28-7.95c11.74-19.8,28.5-29.72,50.3-29.72c20.68,0,34.66,7.33,41.92,21.97c5.03,9.59,7.55,40.56,7.55,92.95
		v125.9c0,51.83-0.57,80-1.69,84.5c-1.69,7.33-8.74,10.71-21.12,10.14h-19.43c-2.82,0-4.22,1.82-4.22,5.47
		c0,4.81,3.66,6.92,10.98,6.36l20.28-2.53h13.52c11.26,1.69,41.11,2.53,89.57,2.53h21.12c7.88,0,17.74,0,29.57,0
		c10.88,0,16.5,0,16.9,0c5.07,0,7.61-1.69,7.61-5.07C911.09,645.92,908.26,643.94,902.64,643.94z"/>
	<path d="M504.68,690.03c-9.85-22.63-21.29-51.01-34.33-85.15l-0.01-0.03l0,0c-9.98-26.14-20.89-55.64-32.73-88.52
		c-0.57-2.81-3.95-12.11-10.14-27.88c-4.52-11.83-6.76-20.56-6.76-26.19c0-7.88,8.45-11.54,25.35-10.98
		c16.9,0.57,25.35-1.69,25.35-6.76c0-3.93-3.1-5.91-9.29-5.91c-4.52,0-8.45,0-11.83,0H347.2c-9.02,0-21.97,0-38.87,0
		c-16.9,0-29.57,0-38.02,0H255.1c-6.76,0-10.14,1.98-10.14,5.91c0,3.95,3.39,5.91,10.15,5.91c20.31,0.59,33.27,2.8,38.91,6.6
		c5.64,3.82,12.41,15.69,20.31,35.62c23.59,56.92,38.76,93.83,45.51,110.73c28.2,69.29,50.76,125.32,67.69,168.12
		c12.93,30.99,21.64,50.98,26.14,59.99c-18.04,52.39-32.25,88.02-42.67,106.9c-10.43,18.87-21.27,28.31-32.53,28.31
		c-6.76,0-12.12-2.83-16.05-8.45c-6.76-12.97-11.55-20.85-14.36-23.66c-6.21-6.76-14.36-10.14-24.5-10.14
		c-30.42,0-45.63,13.8-45.63,41.4c0,17.45,5.49,31.54,16.48,42.25c10.98,10.69,25.48,16.05,43.52,16.05
		c31.54,0,57.46-20.28,77.74-60.84c15.25-30.5,47.69-114.78,97.3-252.79L504.68,690.03z"/>
</g>
</svg>
